<?xml version="1.0" encoding="utf-8"?>
<!-- Generator: Adobe Illustrator 25.2.0, SVG Export Plug-In . SVG Version: 6.00 Build 0)  -->
<svg version="1.1" id="Layer_1" xmlns="http://www.w3.org/2000/svg" xmlns:xlink="http://www.w3.org/1999/xlink" x="0px" y="0px"
	 viewBox="0 0 383 169.1" style="enable-background:new 0 0 383 169.1;" xml:space="preserve">
<style type="text/css">
	<!-- .st0{opacity:0.63;} -->
	<!-- .st1{fill:#F4E1D0;} -->
	<!-- .st2{fill:#2C6666;} -->
</style>
<g class="st0">
	<polygon class="st1" points="198.9,67.4 200.7,61.1 204.8,55.3 210.9,53.9 213.9,56.3 210.9,61.3 	"/>
	<polygon class="st1" points="204.9,34.4 211.8,37.8 217.8,35.1 216.8,33.1 	"/>
	<polygon class="st1" points="229.2,51.3 230.6,47.5 233.9,44 237.5,41.8 239.8,42.5 240,44.4 237.3,48.4 230.6,51.7 	"/>
	<path class="st1" d="M247.8,42.4c0,0-4.3,5-4.9,11.2c-0.6,6.1,0.1,1,1.4,0.7s7.6-3.9,7.7-7.6c0-3.8-1.4-6.5-2.2-6.2
		C249,40.7,247.6,41.8,247.8,42.4z"/>
	<path class="st1" d="M257.2,22.2c0,0-7.8-2.3-9.1-5.1c0,0-0.6-1.5,0.8-1.1l9.1,1.6l3.2,1.1l0.5,1.9l-4.2,1.5"/>
	<polygon class="st1" points="282.6,25 283.1,25.6 280.4,29.6 273,34.1 272.8,32 277.5,25.8 280.9,24.4 	"/>
	<path class="st1" d="M296.8,10.9l-2.5,2.6c0,0-10.4-2.1-10-4.6S296.6,9.5,296.8,10.9z"/>
	<polygon class="st1" points="313.1,28.8 313.5,32.2 309.2,36.5 302.5,40.4 303.2,36.4 307.6,30.9 	"/>
	<polygon class="st1" points="345.5,18.1 342.8,20.6 337.8,20.6 338.8,17.9 341.4,16 	"/>
	<polygon class="st1" points="349.2,9.2 345.9,10.1 341.3,7.6 340.2,5.9 343.6,6 350.1,7.8 	"/>
	<g>
		<path class="st2" d="M247.9,16.4c-0.1,0.3-0.3,0.8-0.3,0.9c3.2,3,6.5,5.5,10.9,5.8c1.1,0.1,2.3-0.5,3.4-0.7c1-0.2,2.1-0.3,3.1-0.5
			c0,0.2,0.1,0.4,0.1,0.6c-1.8,0.5-3.6,1-5.4,1.4c-5.8,1.3-11.3,3.4-16.6,6c-6.6,3.2-13.4,5.3-20.7,5.8c-1,0.1-2,0-3.2,0
			c-1-3.5-3.6-3.6-6.3-3.3c-3.3,0.4-6.6,0.5-9.8-0.7c-0.7-0.2-1.6-0.5-1.8,0.4c-0.1,0.5,0.2,1.5,0.6,1.9c3.8,3.5,8.3,5,13.3,4.3
			c0.2,0,0.5-0.1,0.7-0.2c2.7-1.9,5.9-1.3,8.8-1.6c1.8-0.2,3.5-0.4,5.9-0.7c-0.7,0.6-1.1,1-1.4,1.2c-6,4-11.6,8.6-16.1,14.5
			c-0.4,0.6-1.3,1-2,1.1c-3.7,0.2-6.6,2-8.8,5c-2.6,3.5-4.5,7.5-5.7,11.8c-0.4,1.3-0.3,1.4,0.3,3.1c0.7-0.7,1.4-1.3,2-2
			c2.4-2.7,5.2-4.7,8.5-6c2.6-1,4.9-2.6,6.4-5.2c0.6-1,1-2.3,0.9-3.4c-0.1-1.4,0.2-2.3,1.1-3.3c4.4-5.1,9.4-9.4,14.9-13.1
			c6.1-4.1,12.6-7.5,19.5-10c0.6-0.2,1.3-0.4,2.1-0.2c-0.4,0.3-0.8,0.6-1.2,1c-3.2,3-6.5,5.9-9.7,8.9c-0.7,0.7-1.3,1.3-2.4,1.4
			c-4.6,0.5-7.6,3.4-9.6,7.6c-0.7,1.4-1.6,2.6-2.4,3.9c-0.1,0.2-0.2,0.6-0.3,1.1c2.9-0.9,5.6-1.7,8.1-2.7c2.2-0.8,3.9-2.4,5.2-4.5
			c0.6-1,0.8-2.3,1.1-3.4c0.2-0.7,0.2-1.7,0.7-2.2c2.8-3.2,6-6,9.7-8.3c-0.4,1.4-1,2.8-1.3,4.2c-0.4,2.1-1.4,3.7-3,5.1
			c-3.5,3-4.5,7.4-5,11.9c-0.1,1.2-0.4,2.4,0.3,3.7c2.2-1.6,4.3-3.1,6.3-4.8c1.2-1,2.1-2.4,2.9-3.8c1.7-3.3,1.4-5.3-1.2-8.4
			c1-2.9,1.9-6.1,3-9.1c0.3-0.8,1.1-1.3,1.8-1.8c3.5-2.4,7.4-3.4,11.4-4.3c5.3-1.1,10.6-2.2,15.9-3.2c0.6-0.1,1.2-0.1,2.1-0.2
			c-0.8,1.2-1.6,1.5-2.5,1.6c-5.8,0.9-9.4,4.5-10.7,10.5c-0.2,0.8-0.3,1.6-0.5,2.7c0.7-0.4,1.1-0.7,1.5-0.9c1.9-1.2,3.9-2.4,5.8-3.7
			c1.5-1,2.9-2.2,4.2-3.4c1.2-1.1,2.1-2.5,1.5-4.4c1.8-1.6,3.5-2.9,5.8-3.2c6.9-0.9,13.8-1.8,20.7-2.6c6.6-0.7,13.2-1.2,20-1.6
			c-0.5,0.3-1,0.6-1.5,0.9c-5.2,2.6-10.1,5.6-14.4,9.5c-0.9,0.8-1.8,1.2-2.9,1.3c-3.7,0.2-6.2,2.3-8.2,5.5
			c-2.1,3.4-3.1,7.3-3.4,11.3c0.2,0.1,0.4,0.3,0.6,0.4c0.3-0.6,0.5-1.1,0.8-1.7c1.5-2.6,3.7-4.4,6.3-5.7c1.7-0.9,3.3-2.1,4.7-3.5
			c1.5-1.4,2.4-3.2,1.6-5.7c1.6-1.2,3.1-2.5,4.7-3.6c5-3.6,10.5-6.4,16.2-8.8c1.7-0.7,3.5-1.2,5.8-1c-1.5,1.3-2.8,2.2-4,3.4
			c-1.2,1.1-2,2.5-1.5,4.8c1.9-2.9,4.7-2.5,7.1-3.1c1.7-0.5,3.4-0.8,3.9-2.9c0.1-0.4,0.8-0.8,1.2-1.1c0.7-0.4,1.5-0.6,2.2-0.8
			c4.8-1.6,9.5-3.6,14.4-4.9c5.4-1.5,10.4-4.4,15.2-7.4c0.8-0.5,1.6-1.1,2.2-1.8c0.5-0.6,0.8-1.4,1.2-2.2c-0.1-0.2-0.3-0.3-0.4-0.4
			c-0.4,0.2-0.9,0.3-1.3,0.6c-4.4,3.9-9.6,6.4-14.9,8.1c-4.4,1.4-9.2,1.7-14,1.2c-0.6,0-1.3-0.6-1.8-0.9c-0.6-0.4-1.1-1.2-1.7-1.3
			c-3.3-0.7-6.6-1.2-10-1.8c-0.2,0-0.4,0.2-0.6,0.2c0,0.2-0.1,0.4-0.1,0.5c2,3,4.9,4.5,8.2,5.4c0.6,0.1,1.3,0.1,1.8-0.2
			c2.6-1.5,5.3-0.5,8.1-0.1c-0.4,0.2-0.7,0.4-1.1,0.5c-7.1,1.8-14.4,2.2-21.6,2.6c-4.1,0.2-8.3,0.6-12.4,1.2
			c-4.6,0.6-9,0.5-13.5-0.6c-2.3-0.6-4.6-1-6.9-1.5c-1.3-0.3-2.5-0.5-3.2-2.1c-0.3-0.6-1.2-1.1-1.9-1.3c-1.4-0.5-2.9-0.9-4.3-1.1
			c-2.8-0.4-5.6-0.8-8.4-1.1c-0.6-0.1-1.2,0-2.4,0.1c0.9,1,1.4,1.8,2.1,2.2c2.6,1.5,5.1,3,7.8,4.2c2,0.9,4.1,0.9,6.2,0.2
			c0.7-0.2,1.4-0.4,2-0.3c2.8,0.6,5.6,1.4,8.5,2.5c-0.6,0.1-1.2,0.3-1.9,0.4c-7.9,0.9-15.9,1.8-23.8,2.8c-1.4,0.2-2.8,0.4-4.2,0.8
			c-4.5,1.1-9,0.7-13.6,0.6c-0.8,0-1.3-0.3-1.7-1.1c-0.6-1.6-1.9-2.1-3.4-2.4c-3.3-0.6-6.5-1.2-9.7-1.8c-0.7-0.1-1.5-0.1-2.2-0.1
			c0,0.1-0.1,0.3-0.1,0.5C247.5,15.9,247.7,16.2,247.9,16.4c1.1,0.3,2.2,0.6,3.2,0.8c2.4,0.4,4.8,0.8,7.2,1.2
			c1.1,0.2,2.3,0.2,2.9,1.5c-0.2,0.2-0.3,0.4-0.4,0.4c-4.1-0.2-8.4,0.1-11.9-3.2C248.6,16.8,248.2,16.6,247.9,16.4z M213,56.2
			c0.1,0.1,0.2,0.2,0.4,0.3c-0.5,0.9-0.9,1.8-1.5,2.6c-1.4,1.8-3.3,2.7-5.2,3.7c-2,1-4,2.2-6,3.3c-0.3,0.1-0.5,0.2-0.9,0.4
			c1.4-5.8,6.8-11.7,10.8-11.8c-0.5,1.2-1,2.4-1.6,3.6c0.2,0.2,0.3,0.3,0.5,0.5C210.8,57.9,211.9,57.1,213,56.2z M250.4,41.9
			c1.6,1.6,1.3,3,0.9,4.4c-1.2,4.1-4.4,6-8,8c0.9-4.7,1.9-8.8,5.3-11.8c0,1.4-0.3,2.6-0.5,3.9c-0.2,1.3-0.5,2.5-0.5,3.8
			c0.2,0,0.3,0,0.5,0.1C248.9,47.7,249.6,45,250.4,41.9z M282.6,25c-0.7,3.1-5.5,7-9.3,8.2c0.6-3.8,4.3-7.8,7.7-8.3
			c-0.6,0.6-1,1.2-1.5,1.7c0.1,0.1,0.1,0.2,0.2,0.2C280.6,26.2,281.6,25.6,282.6,25z M230.5,50.3c0.8-3.9,5.1-7.8,8.3-7.6
			c-1.1,1.6-2.3,3-3.1,4.6C234.5,49.6,232.7,50.1,230.5,50.3z M303.1,39.1c1.3-4.9,5.3-9.2,8.4-9.2c-1.2,1.6-2.5,3-3.4,4.7
			C307,36.7,305.3,37.9,303.1,39.1z M294.9,12.2c-3.5,0.6-6.3-1-9.2-2.7c3.6,0.4,7.3-0.2,10.6,1.9c-1-0.1-2-0.2-3-0.4
			c0,0.1,0,0.2,0,0.3C293.9,11.6,294.4,11.9,294.9,12.2z M211.9,36.7c-2-0.1-4-0.5-5.8-1.6c3.1-0.3,6.1-0.7,9.1-1
			c0.6-0.1,1.2,0.2,1.8,0.4C215.4,35.9,213,34.2,211.9,36.7z M341.1,6.3c2.7,0.7,5.4,0.5,8.4,1.7c-1.4,0.3-1.8,1.9-3.2,1.4
			C344.5,8.7,342.7,7.8,341.1,6.3z M313.2,30.3c-0.8,3.1-2.7,5.1-5.1,5.6C309.5,33.7,310.9,31.9,313.2,30.3z M338.6,19.7
			c1.8-1.9,2.4-2.1,4.3-2.2c-0.1,0.2-0.3,0.5-0.5,0.8c0.9-0.2,1.7-0.3,2.4-0.4c0,0.2,0.1,0.3,0.1,0.5
			C343.1,19.2,341.1,19.6,338.6,19.7z M239.5,43.3c0.1,0.1,0.3,0.2,0.5,0.3c-0.5,1.7-1.6,2.9-3,3.8c-0.1-0.1-0.2-0.2-0.4-0.3
			C237.5,45.9,238.5,44.6,239.5,43.3z M344.8,15.3c1.3-0.1,2.3-0.3,3.2-0.4C347.1,15.8,346.2,16.3,344.8,15.3z M258.5,21.3
			c0,0.1,0,0.3-0.1,0.5c-0.9-0.2-1.7-0.4-2.6-0.6c0-0.1,0.1-0.3,0.1-0.4C256.7,20.9,257.6,21.1,258.5,21.3z"/>
	</g>
</g>
<g class="st0">
	<polygon class="st1" points="209.5,134.8 204.9,130.2 198.3,127.1 191.9,128.9 190.2,132.5 195.4,135.4 	"/>
	<polygon class="st1" points="188.2,108.8 183.3,115.2 176.4,115.7 176.4,113.5 	"/>
	<polygon class="st1" points="173.5,135.6 170.3,133 165.6,131.5 161.1,131.4 159.4,133.1 160.1,134.9 164.5,137 172.4,136.7 	"/>
	<path class="st1" d="M151.8,137c0,0,6.4,2.3,9.9,7.4c3.5,5.1,0.4,0.9-1,1.2s-9,0.3-10.8-2.9c-1.8-3.3-1.8-6.4-0.9-6.5
		C149.9,136.1,151.7,136.3,151.8,137z"/>
	<path class="st1" d="M133.3,123.9c0,0,6.2-5.9,6.1-8.9c0,0-0.1-1.6-1.2-0.6l-7.8,5.9l-2.4,2.6l0.4,1.9l4.6-0.8"/>
	<polygon class="st1" points="110.9,138.8 110.8,139.6 115.2,141.8 124.2,142.2 123.5,140.2 116,137.1 112.2,137.5 	"/>
	<path class="st1" d="M90.9,133.4l3.6,1.1c0,0,8.7-7,7.2-9S90.4,132.2,90.9,133.4z"/>
	<polygon class="st1" points="84.2,157.2 85.5,160.4 91.5,162.1 99.6,162.2 97,159.1 90.3,156.4 	"/>
	<polygon class="st1" points="48.6,163.8 52.4,164.7 57.2,162.3 54.9,160.4 51.5,160 	"/>
	<polygon class="st1" points="40.9,157.9 44.5,157 47.6,152.5 47.9,150.5 44.7,152.3 39.5,157.1 	"/>
	<g>
		<path class="st2" d="M139.3,114.2c0.3,0.2,0.7,0.5,0.7,0.7c-1.5,4.2-3.5,8.1-7.4,10.5c-1,0.6-2.4,0.7-3.6,1.1
			c-1.1,0.3-2.1,0.7-3.2,1.1c0,0.2,0.1,0.4,0.2,0.6c1.9-0.5,3.8-0.9,5.7-1.4c6-1.7,12.2-2.6,18.4-2.9c7.7-0.5,15.1-2,22.2-5.1
			c1-0.4,1.9-1,3-1.5c-0.7-3.6,1.6-5,4.3-6c3.3-1.3,6.4-2.8,8.8-5.4c0.5-0.5,1.2-1.2,1.9-0.5c0.4,0.4,0.5,1.4,0.3,2
			c-1.9,5-5.4,8.5-10.4,10.4c-0.2,0.1-0.5,0.2-0.7,0.2c-3.4-0.3-6.1,1.8-9.1,2.9c-1.8,0.7-3.5,1.4-5.8,2.3c1,0.2,1.5,0.3,1.9,0.4
			c7.6,0.6,15,1.8,22,4.8c0.7,0.3,1.7,0.3,2.3,0c3.6-1.7,7.1-1.5,10.6,0c4.2,1.8,7.8,4.4,11,7.5c1,1,1,1,1.1,2.8
			c-1-0.3-1.9-0.5-2.9-0.8c-3.5-1.2-7.1-1.6-10.8-1.1c-3,0.4-5.8,0.1-8.4-1.4c-1-0.6-2-1.6-2.5-2.6c-0.5-1.3-1.3-1.9-2.6-2.4
			c-6.6-2.3-13.3-3.6-20.2-4.2c-7.7-0.6-15.4-0.4-23.1,0.9c-0.7,0.1-1.4,0.3-2,0.8c0.5,0.1,1.1,0.2,1.6,0.3c4.4,1,8.9,2,13.3,3.1
			c1,0.2,1.8,0.5,2.9,0.1c4.6-1.8,8.8-0.7,12.7,2c1.3,0.9,2.7,1.5,4.1,2.2c0.2,0.1,0.4,0.4,0.8,0.8c-3.1,0.6-6,1.3-8.9,1.7
			c-2.4,0.4-4.8-0.2-7-1.4c-1-0.6-1.8-1.6-2.7-2.4c-0.6-0.5-1-1.4-1.7-1.6c-4.2-1.4-8.4-2.3-13.1-2.5c1.1,1,2.2,2,3.2,3.1
			c1.4,1.6,3.1,2.5,5.2,3c4.7,0.9,7.7,4.3,10.4,8c0.7,1,1.5,2,1.5,3.4c-2.8-0.4-5.5-0.5-8.2-1.1c-1.6-0.3-3.1-1.1-4.5-1.9
			c-3.2-2-3.9-3.9-2.9-7.9c-2.3-2.1-4.6-4.4-7.2-6.5c-0.6-0.5-1.7-0.6-2.6-0.7c-4.4-0.4-8.6,0.6-12.7,1.9c-5.5,1.7-10.9,3.3-16.4,5
			c-0.6,0.2-1.2,0.5-2.1,0.8c1.3,0.7,2.2,0.5,3.1,0.2c5.8-2,10.9-0.7,15,4c0.5,0.6,1.1,1.2,1.8,2.1c-0.8,0-1.3-0.1-1.9-0.1
			c-2.4-0.1-4.8-0.1-7.2-0.4c-1.9-0.2-3.8-0.5-5.6-0.9c-1.6-0.4-3.2-1.2-3.5-3.1c-2.4-0.5-4.7-0.8-7,0.1c-6.9,2.7-13.8,5.2-20.7,7.9
			c-6.6,2.6-13,5.5-19.5,8.5c0.6,0,1.2,0.1,1.8,0c6.1-0.3,12.1,0,18.1,1.2c1.2,0.2,2.3,0.2,3.4-0.3c3.6-1.6,6.9-1,10.3,0.8
			c3.6,2,6.4,4.9,8.6,8.3c-0.1,0.2-0.2,0.4-0.3,0.6c-0.5-0.4-1-0.8-1.6-1.1c-2.7-1.5-5.5-2.1-8.6-1.9c-2,0.1-4.1-0.2-6.1-0.7
			c-2.1-0.5-3.8-1.6-4.3-4.2c-2.1-0.3-4.1-0.7-6.1-0.9c-6.5-0.7-12.9-0.4-19.4,0.3c-2,0.2-3.9,0.7-5.9,2c2,0.4,3.7,0.6,5.3,1
			c1.6,0.4,3,1.2,3.7,3.5c-3.2-1.6-5.6,0.1-8.2,0.8c-1.8,0.5-3.5,1-5.1-0.7c-0.3-0.3-1.1-0.3-1.6-0.3c-0.8,0-1.7,0.2-2.5,0.3
			c-5.3,1-10.6,1.5-15.9,2.8c-5.8,1.4-11.9,1.3-17.8,1c-1,0-2-0.2-2.9-0.5c-0.8-0.3-1.5-0.9-2.2-1.3c0-0.2,0.1-0.4,0.1-0.6
			c0.5,0,1-0.2,1.5-0.1c6,1.2,12,0.9,17.8-0.3c4.8-0.9,9.5-3.1,13.6-5.8c0.6-0.4,0.9-1.1,1.3-1.7c0.4-0.6,0.4-1.6,0.9-2
			c2.8-2.2,5.6-4.3,8.5-6.5c0.2-0.1,0.5-0.1,0.7-0.1c0.1,0.2,0.3,0.3,0.3,0.4c-0.5,3.7-2.5,6.4-5.2,8.8c-0.5,0.4-1.2,0.8-1.8,0.8
			c-3.2,0-5.2,2.2-7.7,3.9c0.4,0,0.9,0,1.2-0.1c7.5-2,14.5-5.2,21.5-8.4c4-1.8,8.1-3.6,12.2-5.1c4.6-1.7,8.7-4,12.4-7.2
			c1.9-1.6,3.8-3.2,5.8-4.7c1.1-0.9,2.1-1.7,2-3.4c-0.1-0.7,0.6-1.6,1.1-2.1c1.1-1.1,2.3-2.2,3.6-3.1c2.4-1.8,4.9-3.4,7.4-5.1
			c0.5-0.4,1.1-0.5,2.3-1c-0.4,1.3-0.5,2.3-0.9,3c-1.7,2.6-3.4,5.1-5.3,7.5c-1.4,1.8-3.4,2.8-5.7,3.3c-0.7,0.1-1.5,0.3-2,0.8
			c-2.3,2-4.6,4-6.7,6.4c0.7-0.2,1.3-0.4,1.9-0.6c7.9-3.1,15.7-6.2,23.6-9.3c1.4-0.6,2.8-1,4.3-1.4c4.7-1.2,8.8-3.8,13-6.1
			c0.7-0.4,1.1-1,1-1.8c-0.2-1.7,0.8-2.8,2-3.7c2.8-2.1,5.5-4.3,8.2-6.4c0.6-0.5,1.3-0.8,2-1.2c0.1,0.1,0.2,0.3,0.3,0.4
			C139.5,113.5,139.4,113.8,139.3,114.2c-0.9,0.8-1.8,1.6-2.7,2.3c-2,1.6-4.1,3.1-6.1,4.6c-0.9,0.7-2.1,1.3-2,2.8
			c0.3,0.1,0.5,0.2,0.6,0.2c3.8-2.2,7.9-4.1,9.6-8.7C138.9,114.9,139.1,114.5,139.3,114.2z M191,132c-0.1,0.1-0.1,0.3-0.2,0.4
			c0.9,0.5,1.7,1.2,2.6,1.6c2.1,0.9,4.4,0.8,6.6,0.7c2.4-0.1,4.8,0,7.2,0c0.3,0,0.6-0.1,1-0.1c-4.1-4.4-12-6.9-15.7-5
			c1.1,0.8,2.1,1.6,3.2,2.4c-0.1,0.2-0.2,0.4-0.3,0.7C193.9,132.4,192.5,132.2,191,132z M149.1,137.9c-0.7,2.2,0.2,3.3,1.2,4.3
			c3.1,3,7,3.1,11.3,3.1c-3.1-3.7-6-6.8-10.6-7.8c0.7,1.2,1.5,2.2,2.3,3.2s1.7,2,2.3,3.1c-0.1,0.1-0.3,0.2-0.4,0.3
			C153.3,142.1,151.3,140.1,149.1,137.9z M110.9,138.8c2.1,2.3,8.5,3.4,12.6,2.6c-2.4-3-7.8-4.7-11.2-3.5c0.8,0.3,1.5,0.5,2.2,0.7
			c0,0.1,0,0.2-0.1,0.3C113.3,138.9,112.1,138.8,110.9,138.8z M171.8,135.3c-2.6-3-8.5-4.4-11.3-2.6c1.7,0.9,3.5,1.5,5.1,2.6
			C167.7,136.8,169.7,136.3,171.8,135.3z M98.4,161.3c-3.6-3.7-9.4-5.5-12.2-3.9c1.9,0.8,3.8,1.4,5.5,2.5
			C93.7,161.2,95.8,161.4,98.4,161.3z M93.3,133.7c3.5-1.2,5.5-4,7.3-6.9c-3.2,2.1-6.9,3.4-9.1,6.9c0.9-0.6,1.7-1.2,2.6-1.8
			c0.1,0.1,0.1,0.2,0.2,0.2C94,132.7,93.6,133.2,93.3,133.7z M182.7,114.2c1.8-1.1,3.5-2.4,4.7-4.3c-3.1,1.2-6.1,2.4-9,3.6
			c-0.6,0.2-1,0.8-1.5,1.2C179.1,115.2,180.5,112.6,182.7,114.2z M47.1,151.3c-2.2,1.9-4.9,3.1-7.1,5.6c1.5-0.4,2.6,0.8,3.6-0.3
			C45.2,155.1,46.4,153.4,47.1,151.3z M84.7,158.6c2.3,2.3,5,3.2,7.5,2.4C89.9,159.8,87.7,158.9,84.7,158.6z M55.9,161.8
			c-2.6-0.8-3.2-0.7-5.1,0.2c0.2,0.1,0.5,0.3,0.8,0.5c-0.9,0.3-1.7,0.6-2.5,0.8c0.1,0.2,0.1,0.3,0.2,0.5
			C51.5,163.6,53.6,163,55.9,161.8z M160.1,133.7c-0.1,0.2-0.2,0.4-0.3,0.5c1.3,1.3,2.9,1.8,4.6,1.9c0.1-0.1,0.1-0.3,0.2-0.5
			C163.1,134.9,161.6,134.3,160.1,133.7z M48,161c-1.3,0.5-2.2,0.9-3.2,1.3C46.1,162.6,47.2,162.6,48,161z M131.7,123.7
			c0.1,0.1,0.2,0.3,0.3,0.4c0.7-0.6,1.4-1.2,2.1-1.8c-0.1-0.1-0.2-0.2-0.3-0.3C133.2,122.5,132.5,123.1,131.7,123.7z"/>
	</g>
</g>
</svg>
