<?xml version="1.0" encoding="utf-8"?>
<!-- Generator: Adobe Illustrator 25.2.0, SVG Export Plug-In . SVG Version: 6.00 Build 0)  -->
<svg version="1.1" id="Layer_1" xmlns="http://www.w3.org/2000/svg" xmlns:xlink="http://www.w3.org/1999/xlink" x="0px" y="0px"
	 viewBox="0 0 627 630.1" style="enable-background:new 0 0 627 630.1;" xml:space="preserve">
<style type="text/css">
	.st0{fill:#F7C48F;}
	.st1{fill-rule:evenodd;clip-rule:evenodd;fill:#3E9598;}
</style>
<circle class="st0" cx="313.5" cy="316.6" r="313.5"/>
<g>
	<path id="Rounded" class="st1" d="M153,516.9H474c25.3,0,45.8-20.4,45.8-45.8V150.1c0-25.3-20.4-45.8-45.8-45.8H153
		c-25.3,0-45.8,20.4-45.8,45.8v321C107.3,496.5,127.7,516.9,153,516.9z"/>
	<path class="st0" d="M467.5,499.6H406V395.4c0-28.4-10.7-44.5-33.6-44.5c-24.7,0-37.5,16.7-37.5,44.5v104.4H276V301.1h58.9v26.7
		c0,0,17.7-33,60-33c42,0,72.1,25.7,72.1,79.1v125.6L467.5,499.6L467.5,499.6z M205.8,275.1c-20.2,0-36.4-16.3-36.4-36.8
		s16.3-36.8,36.4-36.8s36.4,16.3,36.4,36.8C242.2,258.8,225.9,275.1,205.8,275.1z M175.3,499.6h61.4V301.1h-61.4V499.6z"/>
</g>
</svg>
