<?xml version="1.0" encoding="utf-8"?>
<!-- Generator: Adobe Illustrator 25.2.0, SVG Export Plug-In . SVG Version: 6.00 Build 0)  -->
<svg version="1.1" id="leaf" xmlns="http://www.w3.org/2000/svg" xmlns:xlink="http://www.w3.org/1999/xlink" x="0px" y="0px"
	 viewBox="0 0 227.2 310.9" style="enable-background:new 0 0 227.2 310.9;" xml:space="preserve">
<style type="text/css">
	<!-- .st0{fill:#1A7F42;} -->
</style>
<path class="st0" d="M216.5,9.7c0,0-59-9.7-108.4,35.1c0,0-42.6,33.6-52.7,70.1c0,0-10.7,46,11.1,83.7c0,0,2.1,2,0.1,3.2
	c0,0-3,2.4-3.5,2.5c0,0-1,1.1-1.8-0.5c0,0-13.1-18.4-28.1-18.2c0,0-19.3-2.3-23.6,19.6c0,0,0.2,24.6,28.4,19.6c0,0,8.1-0.6,19.2-6.7
	c0,0,1.4-1.5,2.5,1c0,0,10.3,20.4,17.2,30.8c0,0,13.9,24.6,40.4,40.4c0,0,15.8,11.4,37.4,12.8c0,0,5.5,0.3-0.3-1.6
	c0,0-14.5-7.1-31.4-19.4c0,0-27.1-19.2-38.2-39.9c0,0-11-16.6-16-27c0,0-3-2.9-0.3-4.1l3.8-2.7c0,0,1-1.5,2.3,0.5
	c0,0,11.1,18.7,41.6,20.6c0,0,25.6,0.1,51.5-22.1c0,0,37.6-24,38.5-76c0,0-0.2-21.1-1.6-24.6c0,0-10.9-41.8,7.6-81.7
	c0,0,4.5-6.1,6.6-9.4C218.9,15.6,222.7,10.3,216.5,9.7z M53.8,211.3c-0.7,0.7-8.9,3.9-8.9,3.9c-20,7.6-25-3.3-25-3.3
	c-5.5-10.5,6-15.8,6-15.8c14.7-5.4,27.8,13.7,27.8,13.7C55,210.6,53.8,211.3,53.8,211.3z M174.7,63.1c0,2.2,0,47.5,0,47.5
	c0.7,30.3-9,51.4-9,51.4c-12.3,35.7-35.1,46.6-35.1,46.6c-30.6,12.7-47.1-7.4-47.1-7.4c-1.9-1.3,0-2.3,0-2.3
	c5.6-5,19.8-22.3,19.8-22.3c9.7-11.9,16.2-29,16.2-29c3.5-9.3,4.9-28,4.9-28c0.3-3,1.5-3.3,1.5-3.3c0.3-0.1,2.2-1.7,2.2-1.7
	c8.6-7.5,10.1-13.4,10.1-13.4c5.4-11,2.2-15.3,2.2-15.3c-6-9.2-13.7-0.3-13.7-0.3c-6.1,7.8-9.2,24.4-9.2,24.4
	c-0.5,2.8-1.6,2.7-1.6,2.7c-9.2,5.3-19.9-2.8-19.9-2.8c-4.2-3.6-5.9-2.2-5.9-2.2c-2.1,2.8,2.1,6.1,2.1,6.1
	c9.2,10.3,22.3,7.7,22.3,7.7c1.4-0.4,1,1,1,1c-1.3,19.6-8.8,31.9-8.8,31.9c-14.1,24.5-24.9,33.8-28.8,38.1c-1.6,1.8-1.9,0.7-1.9,0.7
	c-20.4-37.4-11.7-68.3-11.7-68.3C90.7,30.8,195.9,16.9,195.9,16.9C176.1,34.9,174.7,63.1,174.7,63.1z M127.6,102.5
	c1.7-7.7,4.9-11.3,4.9-11.3C132.6,96.6,127.6,102.5,127.6,102.5z"/>
</svg>
