<svg id="Layer_1" data-name="Layer 1" xmlns="http://www.w3.org/2000/svg" viewBox="0 0 153.8 201.4"><defs><style>.cls-1{fill:#f7c590;}</style></defs><path class="cls-1" d="M152.8,170c-.5-2-2.9-13.2-2.9-13.2a34.8,34.8,0,0,0-5.5-13.7c1.5.1,1.7-1.6,1.7-1.6,2-2.7,0-9.1,0-9.1-.2-7.1-8.1-18.8-8.1-18.8-5.7-12.6-12.1-13.5-12.1-13.5-2.2-.9-18.3-1.2-18.3-1.2-1.1-3-.5-13.7-.5-13.7-.5-12.1-4.1-11.9-4.1-11.9.3-3.4-1.3-7.1-1.8-8.3s.2-8.1-.3-14.4-7.2-20.1-7.2-20.1c-.2-1.8-3.7-8.1-3.7-8.1-.9-2-4.9-6.3-4.9-6.3-1.6-4.7-7.7-7.5-7.7-7.5-4-2.4-24.5-7.1-24.5-7.1-8.7-2.6-11.2.9-11.2.9a109.5,109.5,0,0,0-7.5,8.3c-4.9,5.3-12,13.6-12,13.6-10,10.1-11.6,28-11.6,28-.9,4.1,1.6,17.6,1.6,17.6s-2,4.6-2,4.6c-4.5,12-2.7,19.9-2.7,19.9.3,7.7,5.5,17.3,5.5,17.3-4.3,2.5-10.1,14.4-10.1,14.4C1.3,127.3.6,137.4.6,137.4c-.2,2.4.6,16.8.6,16.8.1,6.1,5.2,4.6,5.2,4.6V161c0,2.3,2.3,15.5,2.3,15.5.7,2.9,4.5,17.9,4.5,17.9,2.6,7.4,4.6,7.5,4.6,7.5,1.7-.2.7-1.4.7-1.4s-3.3-7.1-3.3-7.1c-1.3-1.8-4-16.9-4-16.9-.7-2.9-1.8-10.2-1.8-10.2a60.3,60.3,0,0,1-1.3-8.1c3.2-1.3,8.1-.4,8.1-.4,8,3,12.4-1.7,12.4-1.7a5.3,5.3,0,0,1,4.3-1.7c-.7,7.8,4.9,22.2,4.9,22.2,4.2,10.8,12.4,19.5,12.4,19.5,3.1,1.5,2.6-.3,2.6-.3a79.4,79.4,0,0,1-11.5-18.4,53,53,0,0,1-5.8-14.8,68.4,68.4,0,0,0-1.3-8.8c1.9,0,1.3-2.5,1.3-2.5-3.4-7.4-2.4-9.9-2.4-9.9,1.7-3.1,3.6-17.6,3.6-17.6a13.6,13.6,0,0,0,1.2-1.8c2.4,6.5,8.9,10.3,8.9,10.3a6.6,6.6,0,0,0,.8,3.4c1.9,3.1,2.4.9,2.4.9a11,11,0,0,1-.5-5.3c.3-2,5.8-10.4,5.8-10.4,3.9-.4,5.6,4.2,5.6,4.2.9,8.7,6.2,7.7,6.2,7.7a10,10,0,0,0,8.1-6.4c2.1-3.8,6.7-18,6.7-18,.5-1.6,3.1-4.4,3.1-4.4,2.6.8,2.5,4,2.5,4a10.6,10.6,0,0,0,1.8,6.1,38,38,0,0,1,3.9,6.8c0,1.8.4,5.2.4,5.2a5.8,5.8,0,0,0,1.7,2.9c1.2,1.4,1.7-.7,1.7-.7a58.7,58.7,0,0,0,2-7.2c2.3,4.2,8.7,5.3,8.7,5.3s2.8,6.5,2.8,6.5c1,1.6,2.3,12.3,2.3,12.3.2,4.7,3.2,4.6,3.2,4.6s1.6,4.3,1.6,4.3c2.7,5,2.9,18.8,2.9,18.8.1,8.4-1.2,23.9-1.2,23.9-.3,3.9,1.2,3.7,1.2,3.7,1.6-.4,1.4-3.4,1.4-3.4.2-5.5,1.3-21.3,1.3-21.3,1.4-11.2-5.6-26.8-5.6-26.8,2.4-1.7,7.7-.2,7.7-.2,3,2.5,8-.9,8-.9,1.3-1.9,5.8-4.7,5.8-4.7s3.4.4,3.4.4c2.6,0,4.3,7,4.3,7,1.3,1.7,4.4,19.2,4.4,19.2,2,6,.8,15.4.8,15.4a100.6,100.6,0,0,0-1,10.8c1.3-2.1,3-11.1,3-11.1A31.9,31.9,0,0,0,152.8,170Zm-50-95.6s2.9-.2,2.8,16.2c0,0-1.6,9.9,3.5,16.8,0,0,2.2,4.2,2.8,4.4s-4.6,0-7.2-8.9a47.3,47.3,0,0,1-1.9-11.8s.1-6.3.2-10.3c0,0,.3-3.8-.5-4.6S102,74.7,102.8,74.4ZM9.5,94.4s-1.9-7.9,1.3-15.2c0,0,1.8-4.7,1.8-6.7a62.8,62.8,0,0,1,4.1,21.9s2.5,13.9.8,19.3C17.5,113.7,9.7,103.5,9.5,94.4ZM35.8,67c0-1.1.2-7,1.4-6.9a3.4,3.4,0,0,0,2.4-.6c1.9-1.3,6.4,1,9.6.6s7.4,1.6,8.9-5.8c.4-2.2,4.1-2.3,6.1-1.6s-.1,2.7.2,3.1a9,9,0,0,0,2.5,2.1c3.6,2.7,5.7,1.9,8,2.1s7.5-1.1,9.2-3.1a3.6,3.6,0,0,0,.7-3.6c2.1.5,2.5-.1,2.5-.1.8,4.8-.8,17.6-.8,17.6-.6,8.5-4,10.3-4,10.3-5.4,4.6-6.8,4.7-6.8,4.7C72.3,88.1,65.5,90,65.5,90c-5,2.7-7,1.5-7,1.5a11.9,11.9,0,0,1-2.7-1.9c-3.3-2.3-10.4-4.9-10.4-4.9-5.7-2.7-6.8-6.8-6.8-6.8-2.3-1-2,1.7-2,1.7a38.8,38.8,0,0,1-.9,9.6c-.2,2-4.4,8.3-4.4,8.3-3.7,3.7-3.9,9.4-3.9,9.4s1.4,13.2,1.4,13.2c.8,9.7-2.7,14.2-2.7,14.2C24.6,137.2,14.8,145,14.8,145a7.7,7.7,0,0,1-4.6,2c.4-1.5,7.4-9.5,7.4-9.5,4.8-4.4,6.1-11,6.1-11,0-1.8.8-7,.8-7,1.7-3.3,1.2-7.8,1.2-7.8.3-6.5-4.6-13.2-4.6-13.2a6.8,6.8,0,0,1-1.4-3.3c2.1-7.8,11-16.1,11-16.1C36.9,74.9,35.8,67,35.8,67ZM84.1,48.8c-1-3.5-6.7-3-6.7-3-2.8,1.1-11.3,1.7-11.3,1.7s-1.6,3.2-1.6,3.2c-3.9-2-7,1.2-7,1.2C56.1,44.8,46,45.8,46,45.8a7.2,7.2,0,0,0-.9-4.5c-2.2-2.6-2.1-8.5-2.1-8.5.8-8.6,9.6-7.8,9.6-7.8a19.5,19.5,0,0,0,11.5-.3c6.7-4.1,11.1-.6,11.1-.6s7.9,11.3,7.9,11.3c3.3,4.4,3.9,16,3.9,16l-2.5.9A21.2,21.2,0,0,0,84.1,48.8Zm-1,6.5c-2.5,3.1-10.2,2.6-10.2,2.6a8.3,8.3,0,0,1-6.4-2.8c-.9-1.5,0-3.8,0-3.8.4-2.8,2.1-2.1,2.1-2.1a32.2,32.2,0,0,0,5.5-.9,16.3,16.3,0,0,1,4.7-.8c3.1-.1,3.8,1.9,3.8,1.9S83.1,55.3,83.1,55.3ZM45.5,47.9c4.6-1.1,6.3.4,6.3.4,4.9,1.1,4.8,7,4.8,7a15.9,15.9,0,0,1-1.1,1.8c-1.7,3.1-7.6,1.7-7.6,1.7a23.5,23.5,0,0,0-9-.6C45.3,51.9,45.5,47.9,45.5,47.9Zm-5.3,58c-.5-4.3-4.2-13.1-4.2-13.1s2-4.5,2-4.5C41.3,96.5,40.2,105.9,40.2,105.9Zm-20.1,2.4c-.2-1.8-.1-8.2-.1-8.2,4.2,5.8,4.2,15.6,4.2,15.6s-1.9,7.6-1.9,7.6a14.8,14.8,0,0,1-2,7.8c-1.2,4.2-7.9,10.5-7.9,10.5s-4.2,2-4.2,2c4.7-5.3,9.4-19.1,9.4-19.1C20.3,120.2,20.1,108.3,20.1,108.3Zm2.3,48.2s-2.2.7-6-.8c0,0-6.6-.8-10.4,1,0,0-2.7,1.3-2.7-2.5,0,0-.3-11.1-.4-14.1,0,0,.7-9.6,1.6-11.7,0,0,3.6-7,5.7-10.2,0,0,3.7-5.9,4.8-4.2a4.2,4.2,0,0,0,2.2,2.5,43.6,43.6,0,0,1-5.4,16.3s-2.4,6.7-6.4,11c0,0-1.3,2.4,2.2,2a3.9,3.9,0,0,0,2.6-1.2,9.6,9.6,0,0,1-2.7,3.8s-1.5,1.3,1.7.5c0,0,9.3-2.9,15.6-10.5,0,0-1.6,16,.6,17l.2.3Zm11.2-5.3s0,.8-.4.6-3.5-.2-6.9,3.4c0,0,5.7-9,5.4-9.9S32.5,149.6,33.6,151.2Zm-7.6.6s.4-14.4.5-15.6a25.3,25.3,0,0,0,3.1-5.2s2.8-.9,4-2.6C33.6,128.4,32,146.4,26,151.8Zm10.6-31c-2.6,7.4-6.8,9.1-6.8,9.1,1.2-2.4.5-10.7.5-10.7a55.6,55.6,0,0,1-.5-5.9,33.4,33.4,0,0,0-.4-4.5c-.6-4.5.4-6.2.4-6.2s5-7.1,5-7.1a67,67,0,0,1,3.4,10.1c1.4,3,.7,7.3.7,7.3C38.9,114.7,36.6,120.8,36.6,120.8Zm2.2-.8s2-6.5,1.9-7.6.9,10.4,2.2,13.6C42.9,126,40.1,121.5,38.8,120Zm8.9-2.5c-.6,2.1-1.5,10.4-1.5,10.4-1.5-1.7-2.6-9.1-2.6-9.1-.1-2.9-1.2-9.2-1.2-9.2a44.5,44.5,0,0,1,0-7.5c.1-4.1-2.1-12.2-2.1-12.2a54.5,54.5,0,0,0-1.5-5.4,21.4,21.4,0,0,1,0-3.6,20.6,20.6,0,0,0,2.4,3.4c-.3,2.2,1.7,7.1,1.7,7.1,1.7,2.2,4.1,13,4.1,13A34.3,34.3,0,0,1,47.7,117.5Zm8.2-2.2s-1.4,4.8-3.9,7.5c0,0-3.2,5.3-3.7,7.1a26.2,26.2,0,0,1,.6-8.5s2.4-8.1.3-12.3c0,0,.2-4.8-.3-5.8s-7.3-18-6-17.9l1.6,1.1a34.2,34.2,0,0,0,4.9,7.7,35.4,35.4,0,0,1,5.1,10.2S57,111.8,55.9,115.3Zm22.3-2.9c-1.8,4-3.9,9.9-3.9,9.9-1.5,7-5.6,8.1-5.6,8.1-5.2,2.3-5.6-4.9-5.6-4.9-.2-5.4-6.9-6.3-6.9-6.3,3.8-4.1.4-14,.4-14-.2-4.7-5.8-11.8-5.8-11.8-1.9-1.4-4-6-4-6l7.1,3.4c2.6,2.7,4.1,2.7,4.1,2.7,4,1.3,8.9-1.4,8.9-1.4,8.2-2,16.9-8.7,16.9-8.7s-1.9,8.5-1.9,8.5c.1,1.8-.2,7-.2,7a5.4,5.4,0,0,0,1.6,4.2A19.7,19.7,0,0,0,78.2,112.4Zm17.5,13.8c-.6,4.4-.6-3.7-.6-3.7.1-4.7-1.9-6.2-1.9-6.2a21.5,21.5,0,0,1-3.8-7c.2-4.4-1.9-5.8-1.9-5.8a15,15,0,0,1-3.7-2.8,36.5,36.5,0,0,1,0-5.8A70.1,70.1,0,0,1,85,86.4c2.7-3.8,0-4.5,0-4.5,4.2-3.6,3.6-9.4,3.6-9.4a30.7,30.7,0,0,0,.9-9.6c1.1-6-.3-16.8-.3-16.8.1-7.7-7.7-17.9-7.7-17.9-5.7-11.1-16.2-6.5-16.2-6.5a21,21,0,0,1-12.6,1c-5.8-.4-9.7,4.7-9.7,4.7-5.1,7.2.4,16.4.4,16.4C44.9,48.3,37,57.3,37,57.3c-4.1,2.9-3.3,11.4-3.3,11.4.2,5.4-5.1,10-5.1,10C23.6,83,19,91.5,19,91.5c-.1-1.9-.9-8.7-.9-8.7-3.3-9.8-4.6-22.5-4.6-22.5-1.8-7.5,1.7-18.7,1.7-18.7,1.1-5.6,9.1-16.4,9.1-16.4C26.2,23.4,38.9,9.3,38.9,9.3,45,.7,48.5,2.6,48.5,2.6s3.5.8,3.5.8S66.1,8.1,66.1,8.1c11.1,1.7,14.3,6,14.3,6,2.1,2.4,7.1,10.3,7.1,10.3,1.8,2.6,6.9,14.3,6.9,14.3,4.6,5.6,4.5,19.2,4.5,19.2a21.9,21.9,0,0,0,.8,9.9c1.8,4.1,1,5.9,1,5.9-5.1,6.6-6.2,17.4-6.2,17.4-1.7,6.2,2.6,14.7,2.6,14.7C98.8,114.9,95.7,126.2,95.7,126.2Zm5.5-5c-2.6-2.7-1.7-8.2-1.7-8.2,1.4-4.9-1.5-11.7-1.5-11.7-3.9-9.4,2.3-23.2,2.3-23.2s.6,16,.6,16c.3,11,5,16.1,5,16.1s1,3.6,1,3.6a75.6,75.6,0,0,0,6,12,36.2,36.2,0,0,1-4.7-1A12.2,12.2,0,0,1,101.2,121.2ZM144,141.3c-1.9-.4-2.5.8-2.5.8-3.3-1.3-6.9,2.5-6.9,2.5-4.2,4.5-6.6,3.6-6.6,3.6-4.3-2.3-9.6-1.2-9.6-1.2-4.1,3.2-3.8-1-3.8-1,.3-8.4-3.9-17.7-3.9-17.7-1.6-3.1,2.2-.3,2.2-.3,3.6,1.1,2.9-1.3,2.9-1.3-4.1-5.3-6.8-13.7-6.8-13.7l3.9.8c3.1,1.1,2-1.4,2-1.4-4.7-4.2-6.7-12-6.7-12l12.2.9c7.1-.4,9.7,4.3,9.7,4.3,1.8,1.4,9.6,16,9.6,16,2.1,1.7,4.9,14.5,4.9,14.5C145.9,142.7,144,141.3,144,141.3Z" transform="translate(-0.6 -0.5)"/></svg>